<svg width="140" height="27" viewBox="0 0 140 27" fill="none" xmlns="http://www.w3.org/2000/svg">
<path d="M43.436 7.49C44.768 7.49 45.932 7.748 46.928 8.264C47.936 8.768 48.71 9.5 49.25 10.46C49.802 11.408 50.078 12.518 50.078 13.79C50.078 15.062 49.802 16.166 49.25 17.102C48.71 18.038 47.936 18.758 46.928 19.262C45.932 19.754 44.768 20 43.436 20H39.35V7.49H43.436ZM43.436 18.326C44.9 18.326 46.022 17.93 46.802 17.138C47.582 16.346 47.972 15.23 47.972 13.79C47.972 12.338 47.582 11.204 46.802 10.388C46.022 9.572 44.9 9.164 43.436 9.164H41.402V18.326H43.436ZM51.4277 14.996C51.4277 14 51.6317 13.118 52.0397 12.35C52.4597 11.582 53.0237 10.988 53.7317 10.568C54.4517 10.136 55.2437 9.92 56.1077 9.92C56.8877 9.92 57.5657 10.076 58.1417 10.388C58.7297 10.688 59.1977 11.066 59.5457 11.522V10.082H61.6157V20H59.5457V18.524C59.1977 18.992 58.7237 19.382 58.1237 19.694C57.5237 20.006 56.8397 20.162 56.0717 20.162C55.2197 20.162 54.4397 19.946 53.7317 19.514C53.0237 19.07 52.4597 18.458 52.0397 17.678C51.6317 16.886 51.4277 15.992 51.4277 14.996ZM59.5457 15.032C59.5457 14.348 59.4017 13.754 59.1137 13.25C58.8377 12.746 58.4717 12.362 58.0157 12.098C57.5597 11.834 57.0677 11.702 56.5397 11.702C56.0117 11.702 55.5197 11.834 55.0637 12.098C54.6077 12.35 54.2357 12.728 53.9477 13.232C53.6717 13.724 53.5337 14.312 53.5337 14.996C53.5337 15.68 53.6717 16.28 53.9477 16.796C54.2357 17.312 54.6077 17.708 55.0637 17.984C55.5317 18.248 56.0237 18.38 56.5397 18.38C57.0677 18.38 57.5597 18.248 58.0157 17.984C58.4717 17.72 58.8377 17.336 59.1137 16.832C59.4017 16.316 59.5457 15.716 59.5457 15.032ZM67.9109 20.162C67.1309 20.162 66.4289 20.024 65.8049 19.748C65.1929 19.46 64.7069 19.076 64.3469 18.596C63.9869 18.104 63.7949 17.558 63.7709 16.958H65.8949C65.9309 17.378 66.1289 17.732 66.4889 18.02C66.8609 18.296 67.3229 18.434 67.8749 18.434C68.4509 18.434 68.8949 18.326 69.2069 18.11C69.5309 17.882 69.6929 17.594 69.6929 17.246C69.6929 16.874 69.5129 16.598 69.1529 16.418C68.8049 16.238 68.2469 16.04 67.4789 15.824C66.7349 15.62 66.1289 15.422 65.6609 15.23C65.1929 15.038 64.7849 14.744 64.4369 14.348C64.1009 13.952 63.9329 13.43 63.9329 12.782C63.9329 12.254 64.0889 11.774 64.4009 11.342C64.7129 10.898 65.1569 10.55 65.7329 10.298C66.3209 10.046 66.9929 9.92 67.7489 9.92C68.8769 9.92 69.7829 10.208 70.4669 10.784C71.1629 11.348 71.5349 12.122 71.5829 13.106H69.5309C69.4949 12.662 69.3149 12.308 68.9909 12.044C68.6669 11.78 68.2289 11.648 67.6769 11.648C67.1369 11.648 66.7229 11.75 66.4349 11.954C66.1469 12.158 66.0029 12.428 66.0029 12.764C66.0029 13.028 66.0989 13.25 66.2909 13.43C66.4829 13.61 66.7169 13.754 66.9929 13.862C67.2689 13.958 67.6769 14.084 68.2169 14.24C68.9369 14.432 69.5249 14.63 69.9809 14.834C70.4489 15.026 70.8509 15.314 71.1869 15.698C71.5229 16.082 71.6969 16.592 71.7089 17.228C71.7089 17.792 71.5529 18.296 71.2409 18.74C70.9289 19.184 70.4849 19.532 69.9089 19.784C69.3449 20.036 68.6789 20.162 67.9109 20.162ZM79.0562 9.92C79.8122 9.92 80.4842 10.082 81.0722 10.406C81.6722 10.73 82.1402 11.21 82.4762 11.846C82.8242 12.482 82.9982 13.25 82.9982 14.15V20H80.9642V14.456C80.9642 13.568 80.7422 12.89 80.2982 12.422C79.8542 11.942 79.2482 11.702 78.4802 11.702C77.7122 11.702 77.1002 11.942 76.6442 12.422C76.2002 12.89 75.9782 13.568 75.9782 14.456V20H73.9262V6.68H75.9782V11.234C76.3262 10.814 76.7642 10.49 77.2922 10.262C77.8322 10.034 78.4202 9.92 79.0562 9.92ZM87.6676 11.558C88.0156 11.078 88.4896 10.688 89.0896 10.388C89.7016 10.076 90.3796 9.92 91.1236 9.92C91.9996 9.92 92.7916 10.13 93.4996 10.55C94.2076 10.97 94.7656 11.57 95.1736 12.35C95.5816 13.118 95.7856 14 95.7856 14.996C95.7856 15.992 95.5816 16.886 95.1736 17.678C94.7656 18.458 94.2016 19.07 93.4816 19.514C92.7736 19.946 91.9876 20.162 91.1236 20.162C90.3556 20.162 89.6716 20.012 89.0716 19.712C88.4836 19.412 88.0156 19.028 87.6676 18.56V20H85.6156V6.68H87.6676V11.558ZM93.6976 14.996C93.6976 14.312 93.5536 13.724 93.2656 13.232C92.9896 12.728 92.6176 12.35 92.1496 12.098C91.6936 11.834 91.2016 11.702 90.6736 11.702C90.1576 11.702 89.6656 11.834 89.1976 12.098C88.7416 12.362 88.3696 12.746 88.0816 13.25C87.8056 13.754 87.6676 14.348 87.6676 15.032C87.6676 15.716 87.8056 16.316 88.0816 16.832C88.3696 17.336 88.7416 17.72 89.1976 17.984C89.6656 18.248 90.1576 18.38 90.6736 18.38C91.2016 18.38 91.6936 18.248 92.1496 17.984C92.6176 17.708 92.9896 17.312 93.2656 16.796C93.5536 16.28 93.6976 15.68 93.6976 14.996ZM102.117 20.162C101.181 20.162 100.335 19.952 99.5788 19.532C98.8228 19.1 98.2288 18.5 97.7968 17.732C97.3648 16.952 97.1488 16.052 97.1488 15.032C97.1488 14.024 97.3708 13.13 97.8148 12.35C98.2588 11.57 98.8648 10.97 99.6328 10.55C100.401 10.13 101.259 9.92 102.207 9.92C103.155 9.92 104.013 10.13 104.781 10.55C105.549 10.97 106.155 11.57 106.599 12.35C107.043 13.13 107.265 14.024 107.265 15.032C107.265 16.04 107.037 16.934 106.581 17.714C106.125 18.494 105.501 19.1 104.709 19.532C103.929 19.952 103.065 20.162 102.117 20.162ZM102.117 18.38C102.645 18.38 103.137 18.254 103.593 18.002C104.061 17.75 104.439 17.372 104.727 16.868C105.015 16.364 105.159 15.752 105.159 15.032C105.159 14.312 105.021 13.706 104.745 13.214C104.469 12.71 104.103 12.332 103.647 12.08C103.191 11.828 102.699 11.702 102.171 11.702C101.643 11.702 101.151 11.828 100.695 12.08C100.251 12.332 99.8968 12.71 99.6328 13.214C99.3688 13.706 99.2368 14.312 99.2368 15.032C99.2368 16.1 99.5068 16.928 100.047 17.516C100.599 18.092 101.289 18.38 102.117 18.38ZM108.609 14.996C108.609 14 108.813 13.118 109.221 12.35C109.641 11.582 110.205 10.988 110.913 10.568C111.633 10.136 112.425 9.92 113.289 9.92C114.069 9.92 114.747 10.076 115.323 10.388C115.911 10.688 116.379 11.066 116.727 11.522V10.082H118.797V20H116.727V18.524C116.379 18.992 115.905 19.382 115.305 19.694C114.705 20.006 114.021 20.162 113.253 20.162C112.401 20.162 111.621 19.946 110.913 19.514C110.205 19.07 109.641 18.458 109.221 17.678C108.813 16.886 108.609 15.992 108.609 14.996ZM116.727 15.032C116.727 14.348 116.583 13.754 116.295 13.25C116.019 12.746 115.653 12.362 115.197 12.098C114.741 11.834 114.249 11.702 113.721 11.702C113.193 11.702 112.701 11.834 112.245 12.098C111.789 12.35 111.417 12.728 111.129 13.232C110.853 13.724 110.715 14.312 110.715 14.996C110.715 15.68 110.853 16.28 111.129 16.796C111.417 17.312 111.789 17.708 112.245 17.984C112.713 18.248 113.205 18.38 113.721 18.38C114.249 18.38 114.741 18.248 115.197 17.984C115.653 17.72 116.019 17.336 116.295 16.832C116.583 16.316 116.727 15.716 116.727 15.032ZM123.545 11.522C123.845 11.018 124.241 10.628 124.733 10.352C125.237 10.064 125.831 9.92 126.515 9.92V12.044H125.993C125.189 12.044 124.577 12.248 124.157 12.656C123.749 13.064 123.545 13.772 123.545 14.78V20H121.493V10.082H123.545V11.522ZM127.717 14.996C127.717 14 127.921 13.118 128.329 12.35C128.749 11.582 129.313 10.988 130.021 10.568C130.741 10.136 131.539 9.92 132.415 9.92C133.063 9.92 133.699 10.064 134.323 10.352C134.959 10.628 135.463 11 135.835 11.468V6.68H137.905V20H135.835V18.506C135.499 18.986 135.031 19.382 134.431 19.694C133.843 20.006 133.165 20.162 132.397 20.162C131.533 20.162 130.741 19.946 130.021 19.514C129.313 19.07 128.749 18.458 128.329 17.678C127.921 16.886 127.717 15.992 127.717 14.996ZM135.835 15.032C135.835 14.348 135.691 13.754 135.403 13.25C135.127 12.746 134.761 12.362 134.305 12.098C133.849 11.834 133.357 11.702 132.829 11.702C132.301 11.702 131.809 11.834 131.353 12.098C130.897 12.35 130.525 12.728 130.237 13.232C129.961 13.724 129.823 14.312 129.823 14.996C129.823 15.68 129.961 16.28 130.237 16.796C130.525 17.312 130.897 17.708 131.353 17.984C131.821 18.248 132.313 18.38 132.829 18.38C133.357 18.38 133.849 18.248 134.305 17.984C134.761 17.72 135.127 17.336 135.403 16.832C135.691 16.316 135.835 15.716 135.835 15.032Z" fill="white"/>
<path d="M21 15H14V22H21V15Z" stroke="white" stroke-width="2" stroke-linecap="round" stroke-linejoin="round"/>
<path d="M10 15H3V22H10V15Z" stroke="white" stroke-width="2" stroke-linecap="round" stroke-linejoin="round"/>
<path d="M21 4H14V11H21V4Z" stroke="white" stroke-width="2" stroke-linecap="round" stroke-linejoin="round"/>
<path d="M10 4H3V11H10V4Z" stroke="white" stroke-width="2" stroke-linecap="round" stroke-linejoin="round"/>
</svg>
