<svg width="35" height="35" viewBox="0 0 35 35" fill="none" xmlns="http://www.w3.org/2000/svg">
<path d="M22.4738 24.7598C23.4831 23.7716 24.1751 22.5051 24.4616 21.122C24.7481 19.7389 24.6161 18.3018 24.0824 16.994C23.5488 15.6862 22.6377 14.567 21.4653 13.7792C20.2929 12.9913 18.9125 12.5706 17.5 12.5706C16.0875 12.5706 14.707 12.9913 13.5347 13.7792C12.3623 14.567 11.4512 15.6862 10.9175 16.994C10.3839 18.3018 10.2519 19.7389 10.5384 21.122C10.8249 22.5051 11.5169 23.7716 12.5261 24.7598C10.8174 25.6681 9.39667 27.0362 8.42458 28.7096C8.21641 29.0857 8.16421 29.5286 8.27923 29.9429C8.39425 30.3571 8.66729 30.7097 9.03961 30.9247C9.41192 31.1397 9.85376 31.2 10.2701 31.0925C10.6864 30.9851 11.0438 30.7185 11.2656 30.3502C11.9067 29.267 12.8189 28.3695 13.9123 27.7461C15.0057 27.1227 16.2427 26.7948 17.5013 26.7948C18.76 26.7948 19.997 27.1227 21.0904 27.7461C22.1838 28.3695 23.096 29.267 23.7371 30.3502C23.8426 30.5409 23.9851 30.7087 24.1562 30.8437C24.3273 30.9787 24.5236 31.0783 24.7336 31.1366C24.9437 31.1949 25.1632 31.2108 25.3794 31.1833C25.5957 31.1558 25.8043 31.0855 25.993 30.9765C26.1818 30.8675 26.3469 30.722 26.4788 30.5485C26.6107 30.3749 26.7067 30.1768 26.7611 29.9658C26.8156 29.7547 26.8275 29.535 26.796 29.3193C26.7646 29.1036 26.6905 28.8963 26.5781 28.7096C25.6053 27.0359 24.1836 25.6677 22.4738 24.7598ZM13.6719 19.6875C13.6719 18.9304 13.8964 18.1902 14.317 17.5607C14.7376 16.9312 15.3355 16.4405 16.035 16.1508C16.7345 15.861 17.5042 15.7852 18.2468 15.9329C18.9894 16.0806 19.6715 16.4452 20.2069 16.9806C20.7422 17.516 21.1068 18.1981 21.2545 18.9407C21.4023 19.6832 21.3264 20.453 21.0367 21.1525C20.747 21.852 20.2563 22.4498 19.6268 22.8705C18.9972 23.2911 18.2571 23.5156 17.5 23.5156C16.4847 23.5156 15.511 23.1123 14.7931 22.3944C14.0752 21.6765 13.6719 20.7028 13.6719 19.6875ZM33.7982 20.9986C33.6259 21.1282 33.4297 21.2225 33.2209 21.2762C33.0121 21.3299 32.7948 21.3419 32.5814 21.3116C32.3679 21.2812 32.1626 21.2091 31.977 21.0993C31.7915 20.9896 31.6294 20.8443 31.5 20.6719C30.3611 19.1557 28.7861 17.9935 27.49 17.7133C27.1454 17.6387 26.8339 17.4552 26.6018 17.1897C26.3697 16.9243 26.2293 16.5911 26.2014 16.2396C26.1734 15.8882 26.2595 15.537 26.4468 15.2383C26.6341 14.9395 26.9126 14.7091 27.2412 14.581C27.6502 14.4214 28.0148 14.1655 28.3041 13.8352C28.5933 13.5048 28.7988 13.1097 28.9031 12.6831C29.0073 12.2566 29.0073 11.8112 28.9031 11.3846C28.7988 10.9581 28.5933 10.5629 28.3041 10.2325C28.0148 9.90218 27.6502 9.64635 27.2412 9.48667C26.8321 9.327 26.3907 9.26819 25.9541 9.31521C25.5175 9.36223 25.0987 9.5137 24.733 9.75682C24.3673 9.99993 24.0656 10.3275 23.8533 10.7119C23.7526 10.9067 23.6139 11.0793 23.4454 11.2196C23.2769 11.3599 23.0819 11.4649 22.8721 11.5286C22.6623 11.5923 22.4418 11.6132 22.2238 11.5902C22.0057 11.5672 21.7945 11.5007 21.6026 11.3947C21.4106 11.2887 21.2419 11.1453 21.1063 10.973C20.9708 10.8006 20.8711 10.6028 20.8133 10.3913C20.7555 10.1798 20.7406 9.95889 20.7696 9.74156C20.7986 9.52422 20.8709 9.3149 20.9822 9.12597C21.3882 8.40813 21.9374 7.78142 22.5958 7.28478C23.2542 6.78815 24.0076 6.43219 24.8094 6.23901C25.6111 6.04584 26.444 6.01958 27.2563 6.16187C28.0687 6.30415 28.8431 6.61194 29.5314 7.06612C30.2198 7.52029 30.8074 8.11116 31.2578 8.802C31.7082 9.49285 32.0117 10.2689 32.1495 11.082C32.2873 11.8951 32.2565 12.7278 32.0589 13.5285C31.8613 14.3292 31.5012 15.0807 31.001 15.7363C32.2048 16.5382 33.2615 17.5413 34.125 18.7018C34.3862 19.0497 34.4985 19.4871 34.4372 19.9179C34.376 20.3486 34.1461 20.7374 33.7982 20.9986ZM7.50994 17.7174C6.21384 17.9976 4.63884 19.1598 3.49998 20.6773C3.238 21.0253 2.84854 21.2548 2.41728 21.3156C1.98602 21.3764 1.54828 21.2633 1.20037 21.0014C0.852451 20.7394 0.622856 20.3499 0.56209 19.9187C0.501324 19.4874 0.614364 19.0497 0.876343 18.7018C1.74018 17.5417 2.79689 16.5386 4.00037 15.7363C3.50011 15.0807 3.14001 14.3292 2.94243 13.5285C2.74485 12.7278 2.71401 11.8951 2.85182 11.082C2.98964 10.2689 3.29316 9.49285 3.74355 8.802C4.19393 8.11116 4.78155 7.52029 5.4699 7.06612C6.15826 6.61194 6.93265 6.30415 7.74497 6.16187C8.5573 6.01958 9.3902 6.04584 10.1919 6.23901C10.9937 6.43219 11.7472 6.78815 12.4055 7.28478C13.0639 7.78142 13.6131 8.40813 14.0191 9.12597C14.1304 9.3149 14.2027 9.52422 14.2317 9.74156C14.2607 9.95889 14.2459 10.1798 14.188 10.3913C14.1302 10.6028 14.0306 10.8006 13.895 10.973C13.7594 11.1453 13.5907 11.2887 13.3988 11.3947C13.2068 11.5007 12.9956 11.5672 12.7775 11.5902C12.5595 11.6132 12.339 11.5923 12.1292 11.5286C11.9194 11.4649 11.7244 11.3599 11.5559 11.2196C11.3874 11.0793 11.2487 10.9067 11.148 10.7119C10.9357 10.3275 10.634 9.99993 10.2683 9.75682C9.90267 9.5137 9.48383 9.36223 9.04725 9.31521C8.61067 9.26819 8.16918 9.327 7.76013 9.48667C7.35109 9.64635 6.98651 9.90218 6.69724 10.2325C6.40797 10.5629 6.20252 10.9581 6.09826 11.3846C5.994 11.8112 5.994 12.2566 6.09826 12.6831C6.20252 13.1097 6.40797 13.5048 6.69724 13.8352C6.98651 14.1655 7.35108 14.4214 7.76013 14.581C8.08867 14.7091 8.36723 14.9395 8.55453 15.2383C8.74182 15.537 8.82788 15.8882 8.79996 16.2396C8.77204 16.5911 8.63161 16.9243 8.3995 17.1897C8.16739 17.4552 7.85594 17.6387 7.5113 17.7133L7.50994 17.7174Z" fill="#EA580C"/>
</svg>
