<svg width="33" height="31" viewBox="0 0 33 31" fill="none" xmlns="http://www.w3.org/2000/svg">
<path d="M31.3243 11.6311C31.1676 11.1798 30.8732 10.7817 30.4776 10.4863C30.082 10.1909 29.6028 10.0113 29.0994 9.96965L21.7518 9.37266L18.8771 2.93773C18.6794 2.50013 18.3489 2.12688 17.9269 1.86449C17.5049 1.6021 17.0101 1.46219 16.504 1.46219C15.9979 1.46219 15.503 1.6021 15.081 1.86449C14.659 2.12688 14.3286 2.50013 14.1308 2.93773L11.2523 9.37266L3.90469 9.96965C3.39859 10.009 2.91613 10.1879 2.51786 10.4839C2.11959 10.7799 1.82325 11.1798 1.666 11.6334C1.50876 12.087 1.49763 12.5741 1.63401 13.0336C1.77039 13.4932 2.0482 13.9046 2.43258 14.2164L8.0168 18.7938L6.34102 25.6041C6.22609 26.0678 6.25923 26.5531 6.43629 26.9992C6.61335 27.4454 6.92648 27.8326 7.33653 28.1125C7.74658 28.3924 8.23536 28.5525 8.74175 28.5729C9.24815 28.5932 9.74971 28.4729 10.1837 28.227L16.5001 24.6232L22.8165 28.227C23.2505 28.4725 23.7519 28.5925 24.2581 28.572C24.7642 28.5514 25.2527 28.3912 25.6625 28.1114C26.0724 27.8316 26.3853 27.4445 26.5624 26.9986C26.7394 26.5527 26.7726 26.0676 26.6579 25.6041L24.9822 18.7938L30.5664 14.2164C30.9497 13.9035 31.2262 13.4912 31.361 13.0313C31.4959 12.5713 31.4831 12.0842 31.3243 11.6311ZM22.7198 16.7921C22.3663 17.081 22.1033 17.455 21.9591 17.8738C21.8149 18.2926 21.7949 18.7405 21.9013 19.1691L23.3695 25.1415L17.8343 21.9834C17.4323 21.7534 16.9708 21.6318 16.5001 21.6318C16.0295 21.6318 15.5679 21.7534 15.1659 21.9834L9.6307 25.1415L11.0989 19.1691C11.2053 18.7405 11.1854 18.2926 11.0411 17.8738C10.8969 17.455 10.6339 17.081 10.2804 16.7921L5.37035 12.7681L11.8337 12.2426C12.3017 12.2049 12.7498 12.0474 13.1292 11.7871C13.5085 11.5269 13.8046 11.1738 13.9852 10.7664L16.5001 5.1368L19.0151 10.7664C19.1957 11.1738 19.4917 11.5269 19.8711 11.7871C20.2504 12.0474 20.6985 12.2049 21.1665 12.2426L27.6299 12.7681L22.7198 16.7921Z" fill="#EAB308"/>
</svg>
